<?xml version="1.0" encoding="utf-8"?>
<!-- Generator: Adobe Illustrator 25.4.1, SVG Export Plug-In . SVG Version: 6.00 Build 0)  -->
<svg version="1.1" id="Layer_1" xmlns="http://www.w3.org/2000/svg" xmlns:xlink="http://www.w3.org/1999/xlink" x="0px" y="0px"
	 viewBox="0 0 31 32" style="enable-background:new 0 0 31 32;" xml:space="preserve">
<style type="text/css">
	.st0{fill:#F4B459;}
	.st1{fill:#484848;}
</style>
<g>
	<path class="st0" d="M27.19,26.35c-13.19,6.28-21.37,1.02-26.61-2.16c-0.32-0.2-0.88,0.05-0.4,0.6C1.93,26.9,7.65,32,15.12,32
		c7.47,0,11.91-4.08,12.47-4.79C28.14,26.51,27.75,26.12,27.19,26.35z M30.89,24.31c-0.35-0.46-2.15-0.55-3.29-0.41
		c-1.13,0.14-2.84,0.83-2.69,1.24c0.08,0.16,0.23,0.09,1.01,0.02c0.78-0.08,2.97-0.35,3.42,0.24c0.46,0.6-0.7,3.46-0.91,3.92
		c-0.2,0.46,0.08,0.58,0.46,0.27c0.38-0.31,1.06-1.1,1.52-2.23C30.88,26.24,31.16,24.66,30.89,24.31z"/>
	<path class="st1" d="M23.85,16.39V5.88c0-1.8-1.75-5.88-8.02-5.88C9.56,0,6.22,3.92,6.22,7.45l5.24,0.47c0,0,1.17-3.53,3.88-3.53
		s2.53,2.2,2.53,2.67v2.28c-3.47,0.12-12.1,1.11-12.1,8.38c0,7.82,9.87,8.15,13.11,3.09c0.13,0.2,0.27,0.41,0.44,0.59
		c1.19,1.25,2.78,2.74,2.78,2.74l4.05-4C26.15,20.16,23.85,18.35,23.85,16.39z M11.86,16.76c0-3.36,3.6-4.04,6.01-4.12v2.89
		C17.87,21.26,11.86,20.39,11.86,16.76z"/>
</g>
</svg>
