<?xml version="1.0" encoding="utf-8"?>
<!-- Generator: Adobe Illustrator 25.4.1, SVG Export Plug-In . SVG Version: 6.00 Build 0)  -->
<svg version="1.1"
	 id="svg2" xmlns:cc="http://creativecommons.org/ns#" xmlns:dc="http://purl.org/dc/elements/1.1/" xmlns:inkscape="http://www.inkscape.org/namespaces/inkscape" xmlns:rdf="http://www.w3.org/1999/02/22-rdf-syntax-ns#" xmlns:sodipodi="http://sodipodi.sourceforge.net/DTD/sodipodi-0.dtd" xmlns:svg="http://www.w3.org/2000/svg"
	 xmlns="http://www.w3.org/2000/svg" xmlns:xlink="http://www.w3.org/1999/xlink" x="0px" y="0px" viewBox="0 0 80.34 32"
	 style="enable-background:new 0 0 80.34 32;" xml:space="preserve">
<style type="text/css">
	.st0{fill-rule:evenodd;clip-rule:evenodd;}
</style>
<sodipodi:namedview  bordercolor="#666666" borderopacity="1" gridtolerance="10" guidetolerance="10" id="namedview16" inkscape:current-layer="svg2" inkscape:cx="172.06568" inkscape:cy="209.57538" inkscape:pageopacity="0" inkscape:pageshadow="2" inkscape:window-height="931" inkscape:window-maximized="1" inkscape:window-width="1680" inkscape:window-x="0" inkscape:window-y="1" inkscape:zoom="0.37" objecttolerance="10" pagecolor="#ffffff" showgrid="false">
	</sodipodi:namedview>
<g id="g4157" transform="translate(0,8.0966797e-5)">
	<path id="path8" inkscape:connector-curvature="0" d="M44.24,6.9c-7.22,0-12.67,5.61-12.67,12.55c0,7.32,5.69,12.55,12.67,12.55
		s12.65-5.23,12.65-12.55C56.89,12.51,51.45,6.9,44.24,6.9z M44.24,13.53c3.12-0.02,5.67,2.64,5.67,5.92c0,3.26-2.55,5.92-5.67,5.92
		s-5.67-2.66-5.67-5.92C38.57,16.17,41.12,13.53,44.24,13.53L44.24,13.53z"/>
	<path id="path10" inkscape:connector-curvature="0" d="M80.34,27.61c0,2.43-1.97,4.39-4.39,4.39s-4.39-1.97-4.39-4.39
		s1.97-4.39,4.39-4.39S80.34,25.18,80.34,27.61z"/>
	<path id="path12" inkscape:connector-curvature="0" d="M67.56,31.16h-6.9V0h6.9V31.16z"/>
	<path id="path14" inkscape:connector-curvature="0" class="st0" d="M0,31.16L12.55,0h6.48l12.34,31.16h-8.78l-1.46-4.39H10.25
		l-1.46,4.39H0L0,31.16z M19.03,20.29h-6.48l3.24-10.46L19.03,20.29z"/>
</g>
</svg>
