<?xml version="1.0" encoding="utf-8"?>
<!-- Generator: Adobe Illustrator 25.4.1, SVG Export Plug-In . SVG Version: 6.00 Build 0)  -->
<svg version="1.1" id="Layer_1" focusable="false" xmlns="http://www.w3.org/2000/svg" xmlns:xlink="http://www.w3.org/1999/xlink"
	 x="0px" y="0px" viewBox="0 0 32 32" style="enable-background:new 0 0 32 32;" xml:space="preserve">
<style type="text/css">
	.st0{fill:#079948;}
	.st1{fill:#FFFFFF;}
</style>
<g>
	<rect class="st0" width="32" height="32"/>
	<path class="st1" d="M4,16.92v9.23C4,27.17,4.83,28,5.85,28h20.31c1.02,0,1.84-0.83,1.85-1.85v-9.23H4z M19.69,23.39h-7.38v-1.85
		h7.38L19.69,23.39z M26.15,4H5.85C4.83,4,4,4.83,4,5.85v9.23h24V5.85C28,4.83,27.17,4,26.15,4z M19.69,10.46h-2.77v2.77h-1.85
		v-2.77h-2.77V8.61h2.77V5.85h1.85v2.77h2.77L19.69,10.46z"/>
</g>
</svg>
