<?xml version="1.0" encoding="utf-8"?>
<!-- Generator: Adobe Illustrator 25.4.1, SVG Export Plug-In . SVG Version: 6.00 Build 0)  -->
<svg version="1.1" id="Layer_1" focusable="false" xmlns="http://www.w3.org/2000/svg" xmlns:xlink="http://www.w3.org/1999/xlink"
	 x="0px" y="0px" viewBox="0 0 32 32" style="enable-background:new 0 0 32 32;" xml:space="preserve">
<style type="text/css">
	.st0{fill:#2A2A2A;}
	.st1{fill:#FFFFFF;}
</style>
<rect class="st0" width="32" height="32"/>
<path class="st1" d="M25.06,25.89c-0.25,0-0.48,0.07-0.69,0.17l-5.91-8.2c0.44-0.44,0.58-1.1,0.34-1.68l4.28-2.57
	c0.29,0.33,0.71,0.55,1.19,0.55c0.86,0,1.56-0.7,1.56-1.56c0-0.78-0.57-1.41-1.31-1.53V6.11c0.85-0.13,1.44-0.92,1.31-1.77
	C25.71,3.57,25.05,3,24.27,3.02c-0.86,0-1.56,0.7-1.56,1.56c0,0.2,0.04,0.38,0.11,0.56l-4.26,2.48c-0.29-0.36-0.73-0.57-1.2-0.57
	c-0.86,0-1.56,0.7-1.56,1.56c0,0.78,0.57,1.42,1.31,1.54v5.1c-0.22,0.03-0.42,0.11-0.6,0.23L9.93,8.2c0.21-0.27,0.35-0.6,0.35-0.97
	c0-0.86-0.7-1.56-1.56-1.56c-0.86,0-1.56,0.7-1.56,1.56s0.7,1.56,1.56,1.56c0.3,0,0.6-0.09,0.85-0.25l6.57,7.25
	c-0.21,0.27-0.35,0.6-0.35,0.97c0,0.23,0.05,0.45,0.14,0.65l-7.86,5.25c-0.29-0.32-0.71-0.5-1.14-0.5c-0.86,0-1.56,0.7-1.56,1.56
	s0.7,1.56,1.56,1.56s1.56-0.7,1.56-1.56l0,0c0-0.23-0.05-0.45-0.14-0.65l7.86-5.25c0.07,0.08,0.15,0.14,0.23,0.2l-1.95,3.93
	c-0.15-0.05-0.3-0.07-0.46-0.08c-0.86,0-1.56,0.69-1.56,1.56c0,0.86,0.7,1.56,1.56,1.56c0.86,0,1.56-0.7,1.56-1.56
	c0-0.5-0.24-0.97-0.65-1.27l1.95-3.93c0.15,0.05,0.3,0.08,0.46,0.08c0.25,0,0.48-0.06,0.69-0.17l5.91,8.2
	c-0.61,0.61-0.61,1.6,0,2.21s1.6,0.61,2.21,0s0.61-1.6,0-2.21C25.87,26.05,25.47,25.89,25.06,25.89L25.06,25.89z M18.91,8.59
	c0-0.2-0.04-0.38-0.11-0.56l4.26-2.47c0.24,0.29,0.57,0.49,0.95,0.55v4.96c-0.85,0.14-1.43,0.94-1.29,1.79
	c0.02,0.11,0.05,0.22,0.09,0.33l-4.28,2.57c-0.24-0.28-0.57-0.47-0.93-0.53v-5.1C18.36,10.01,18.91,9.36,18.91,8.59L18.91,8.59z"/>
</svg>
