<?xml version="1.0" encoding="utf-8"?>
<!-- Generator: Adobe Illustrator 25.4.1, SVG Export Plug-In . SVG Version: 6.00 Build 0)  -->
<svg version="1.1"
	 id="svg2" xmlns:cc="http://creativecommons.org/ns#" xmlns:dc="http://purl.org/dc/elements/1.1/" xmlns:inkscape="http://www.inkscape.org/namespaces/inkscape" xmlns:rdf="http://www.w3.org/1999/02/22-rdf-syntax-ns#" xmlns:sodipodi="http://sodipodi.sourceforge.net/DTD/sodipodi-0.dtd" xmlns:svg="http://www.w3.org/2000/svg"
	 xmlns="http://www.w3.org/2000/svg" xmlns:xlink="http://www.w3.org/1999/xlink" x="0px" y="0px" viewBox="0 0 32 31.94"
	 style="enable-background:new 0 0 32 31.94;" xml:space="preserve">
<style type="text/css">
	.st0{fill:#F06A35;}
	.st1{fill:#FFFFFF;}
</style>
<path id="path4195" class="st0" d="M3.66,31.82c-0.6-0.16-1.12-0.39-1.59-0.71c-0.4-0.27-0.99-0.84-1.21-1.17
	c-0.27-0.4-0.59-1.09-0.71-1.57C0,27.88,0,27.69,0,16C0,4.37,0,4.11,0.13,3.61C0.58,1.84,1.98,0.5,3.79,0.1
	c0.52-0.12,23.72-0.14,24.28-0.02c1.52,0.31,2.71,1.22,3.4,2.6c0.55,1.09,0.5-0.11,0.52,12.88c0.02,8.26,0,11.73-0.05,12.16
	c-0.25,2.02-1.64,3.59-3.65,4.1c-0.51,0.13-0.69,0.13-12.35,0.13C4.67,31.94,4.1,31.93,3.66,31.82z"/>
<path id="path4163" class="st1" d="M20.53,25.82c1.44-0.2,2.56-0.77,3.62-1.85c0.76-0.78,1.24-1.63,1.56-2.75
	c0.13-0.47,0.14-0.69,0.16-3.43c0.02-2.07,0-3.03-0.05-3.28c-0.08-0.35-0.3-0.68-0.55-0.82c-0.08-0.04-0.57-0.1-1.1-0.12
	c-0.89-0.04-0.99-0.06-1.27-0.22c-0.44-0.26-0.57-0.54-0.57-1.31c0-1.46-0.61-2.82-1.81-4.04c-0.86-0.87-1.81-1.46-2.9-1.79
	c-0.26-0.08-0.84-0.11-2.8-0.13c-3.07-0.04-3.75,0.03-4.79,0.44C8.1,7.29,6.72,8.91,6.21,10.98c-0.09,0.39-0.11,1.01-0.14,4.6
	c-0.03,4.49,0,5.15,0.28,6.04c0.23,0.73,0.47,1.19,0.95,1.82c0.92,1.22,2.29,2.1,3.67,2.35C11.63,25.9,19.7,25.93,20.53,25.82
	L20.53,25.82z"/>
<path id="path4168" class="st0" d="M12.05,13.5c-0.73-0.2-1.01-1.26-0.47-1.8c0.35-0.35,0.44-0.36,2.6-0.36c1.94,0,2.01,0,2.29,0.15
	c0.41,0.21,0.59,0.5,0.59,0.97c0,0.42-0.17,0.72-0.54,0.95c-0.2,0.13-0.32,0.14-2.22,0.15C13.12,13.56,12.18,13.54,12.05,13.5z"/>
<path id="path4166" class="st0" d="M11.95,20.59c-0.32-0.14-0.61-0.52-0.66-0.86c-0.05-0.32,0.11-0.77,0.36-0.99
	c0.31-0.28,0.45-0.29,4.3-0.3c3.96,0,3.94,0,4.32,0.35c0.53,0.5,0.42,1.38-0.22,1.74l-0.66,0.11l-3.42,0.04
	C12.96,20.72,12.11,20.66,11.95,20.59z"/>
</svg>
