<?xml version="1.0" encoding="utf-8"?>
<!-- Generator: Adobe Illustrator 25.4.1, SVG Export Plug-In . SVG Version: 6.00 Build 0)  -->
<svg version="1.1" id="Layer_1" focusable="false" xmlns="http://www.w3.org/2000/svg" xmlns:xlink="http://www.w3.org/1999/xlink"
	 x="0px" y="0px" viewBox="0 0 32 24" style="enable-background:new 0 0 32 24;" xml:space="preserve">
<path d="M31.39,7.92C31.64,7.73,32,7.91,32,8.22V21c0,1.66-1.34,3-3,3H3c-1.66,0-3-1.34-3-3V8.22c0-0.31,0.36-0.49,0.61-0.29
	c1.4,1.09,3.26,2.47,9.63,7.1c1.32,0.96,3.54,2.99,5.76,2.97c2.23,0.02,4.5-2.05,5.77-2.97C28.14,10.4,29.99,9.01,31.39,7.92z
	 M16,16c1.45,0.02,3.54-1.83,4.59-2.59c8.29-6.02,8.93-6.54,10.84-8.04C31.79,5.09,32,4.65,32,4.19V3c0-1.66-1.34-3-3-3H3
	C1.34,0,0,1.34,0,3v1.19c0,0.46,0.21,0.89,0.57,1.18c1.91,1.49,2.54,2.02,10.84,8.04C12.46,14.17,14.55,16.02,16,16L16,16z"/>
</svg>
