<?xml version="1.0" encoding="utf-8"?>
<!-- Generator: Adobe Illustrator 25.4.1, SVG Export Plug-In . SVG Version: 6.00 Build 0)  -->
<svg version="1.1" id="Layer_1" xmlns="http://www.w3.org/2000/svg" xmlns:xlink="http://www.w3.org/1999/xlink" x="0px" y="0px"
	 viewBox="0 0 32 32" style="enable-background:new 0 0 32 32;" xml:space="preserve">
<style type="text/css">
	.st0{fill:#0082BE;}
</style>
<path class="st0" d="M29.64,0H2.36C1.06,0,0,1.06,0,2.36v27.27C0,30.94,1.06,32,2.36,32h27.28c1.3,0,2.36-1.06,2.36-2.36V2.36
	C32,1.06,30.94,0,29.64,0z M9.54,27.26H4.73V11.98h4.81V27.26z M7.13,9.86c-1.53,0-2.77-1.17-2.77-2.76S5.6,4.34,7.13,4.34
	S9.91,5.5,9.91,7.1S8.66,9.86,7.13,9.86z M27.27,27.27h-4.81v-8.35c0-2.46-1.05-3.22-2.4-3.22c-1.43,0-2.83,1.07-2.83,3.28v8.29
	h-4.81V11.99h4.63v2.12h0.06c0.47-0.94,2.09-2.55,4.57-2.55c2.68,0,5.59,1.59,5.59,6.26V27.27z"/>
</svg>
