<?xml version="1.0" encoding="utf-8"?>
<!-- Generator: Adobe Illustrator 25.4.1, SVG Export Plug-In . SVG Version: 6.00 Build 0)  -->
<svg version="1.1" xmlns="http://www.w3.org/2000/svg" xmlns:xlink="http://www.w3.org/1999/xlink" x="0px" y="0px"
	 viewBox="0 0 32 32" style="enable-background:new 0 0 32 32;" xml:space="preserve">
<style type="text/css">
	.st0{fill:#FFFFFF;}
	.st1{fill:#DD001B;}
</style>
<g id="Layer_2">
</g>
<g id="art">
	<g>
		<circle class="st0" cx="16" cy="16" r="16"/>
		<g>
			<path class="st1" d="M16,0C7.16,0,0,7.16,0,16c0,6.78,4.22,12.57,10.17,14.9c-0.14-1.27-0.27-3.21,0.06-4.59
				c0.29-1.25,1.88-7.95,1.88-7.95s-0.48-0.96-0.48-2.38c0-2.22,1.29-3.89,2.9-3.89c1.37,0,2.02,1.02,2.02,2.25
				c0,1.37-0.87,3.43-1.33,5.33c-0.38,1.59,0.8,2.89,2.37,2.89c2.84,0,5.03-3,5.03-7.33c0-3.83-2.75-6.51-6.68-6.51
				c-4.55,0-7.22,3.41-7.22,6.94c0,1.38,0.53,2.85,1.19,3.65c0.13,0.16,0.15,0.3,0.11,0.46c-0.12,0.51-0.39,1.59-0.44,1.81
				c-0.07,0.29-0.23,0.35-0.54,0.21c-2-0.93-3.25-3.85-3.25-6.2c0-5.05,3.67-9.68,10.57-9.68c5.55,0,9.86,3.96,9.86,9.24
				c0,5.51-3.48,9.95-8.3,9.95c-1.62,0-3.15-0.84-3.67-1.84c0,0-0.8,3.05-1,3.8c-0.36,1.39-1.34,3.13-1.99,4.19
				C12.76,31.75,14.35,32,16,32c8.84,0,16-7.16,16-16C32,7.16,24.84,0,16,0z"/>
		</g>
	</g>
</g>
</svg>
