<?xml version="1.0" encoding="utf-8"?>
<!-- Generator: Adobe Illustrator 25.4.1, SVG Export Plug-In . SVG Version: 6.00 Build 0)  -->
<svg version="1.1" id="Layer_1" xmlns="http://www.w3.org/2000/svg" xmlns:xlink="http://www.w3.org/1999/xlink" x="0px" y="0px"
	 viewBox="0 0 32 28.51" style="enable-background:new 0 0 32 28.51;" xml:space="preserve">
<style type="text/css">
	.st0{fill-rule:evenodd;clip-rule:evenodd;fill:#EF4056;}
</style>
<path id="logo" class="st0" d="M25.14,11.9l-7.63,7.18c-0.38,0.4-0.91,0.62-1.46,0.62c-0.59,0.02-1.15-0.21-1.57-0.62L6.96,11.9
	c-0.84-0.88-0.84-2.26,0-3.14c0.84-0.79,2.24-0.9,3.09,0l6,5.78l6.12-5.78c0.79-0.9,2.19-0.79,2.99,0c0.78,0.9,0.78,2.24,0,3.14
	 M29.01,0H3.09C1.42-0.04,0.04,1.29,0,2.95c0,0.01,0,0.01,0,0.02v9.6c0,8.7,7.18,15.94,16.05,15.94
	c8.79-0.03,15.92-7.14,15.95-15.94v-9.6c0.01-1.63-1.31-2.96-2.94-2.97C29.04,0,29.03,0,29.01,0"/>
</svg>
