<?xml version="1.0" encoding="utf-8"?>
<!-- Generator: Adobe Illustrator 25.4.1, SVG Export Plug-In . SVG Version: 6.00 Build 0)  -->
<svg version="1.1" id="Layer_1" xmlns="http://www.w3.org/2000/svg" xmlns:xlink="http://www.w3.org/1999/xlink" x="0px" y="0px"
	 viewBox="0 0 32 32" style="enable-background:new 0 0 32 32;" xml:space="preserve">
<style type="text/css">
	.st0{fill:#FF4500;}
	.st1{fill:#FFFFFF;}
</style>
<g id="icon_2">
	<g>
		<circle class="st0" cx="16" cy="16" r="16"/>
		<path class="st1" d="M26.68,16c0-1.3-1.04-2.34-2.34-2.34c-0.63,0-1.2,0.26-1.61,0.65c-1.59-1.16-3.79-1.9-6.24-1.98l1.06-5.01
			l3.47,0.75c0.04,0.88,0.77,1.59,1.67,1.59c0.92,0,1.67-0.75,1.67-1.67c0-0.92-0.75-1.67-1.67-1.67c-0.65,0-1.22,0.37-1.49,0.92
			l-3.89-0.82c-0.1-0.02-0.22,0-0.31,0.06c-0.1,0.06-0.16,0.16-0.18,0.26l-1.18,5.58c-2.49,0.08-4.71,0.8-6.34,1.98
			c-0.41-0.39-0.98-0.65-1.61-0.65c-1.3,0-2.34,1.04-2.34,2.34c0,0.94,0.57,1.77,1.37,2.12c-0.04,0.24-0.06,0.47-0.06,0.71
			c0,3.59,4.18,6.5,9.34,6.5s9.34-2.91,9.34-6.5c0-0.24-0.02-0.47-0.06-0.71C26.11,17.77,26.68,16.96,26.68,16z M10.68,17.67
			c0-0.92,0.75-1.67,1.67-1.67s1.67,0.75,1.67,1.67c0,0.92-0.75,1.67-1.67,1.67S10.68,18.59,10.68,17.67z M19.97,22.07
			c-1.14,1.14-3.32,1.22-3.97,1.22c-0.65,0-2.83-0.08-3.97-1.22c-0.18-0.18-0.18-0.45,0-0.61c0.18-0.18,0.45-0.18,0.61,0
			c0.73,0.73,2.26,0.96,3.34,0.96c1.08,0,2.63-0.26,3.36-0.98c0.18-0.18,0.45-0.18,0.61,0C20.14,21.63,20.14,21.91,19.97,22.07z
			 M19.67,19.34c-0.92,0-1.67-0.75-1.67-1.67c0-0.92,0.75-1.67,1.67-1.67s1.67,0.75,1.67,1.67C21.34,18.59,20.59,19.34,19.67,19.34z
			"/>
	</g>
</g>
</svg>
