<?xml version="1.0" encoding="utf-8"?>
<!-- Generator: Adobe Illustrator 25.4.1, SVG Export Plug-In . SVG Version: 6.00 Build 0)  -->
<svg version="1.1" id="Logo" xmlns="http://www.w3.org/2000/svg" xmlns:xlink="http://www.w3.org/1999/xlink" x="0px" y="0px"
	 viewBox="0 0 32 26" style="enable-background:new 0 0 32 26;" xml:space="preserve">
<style type="text/css">
	.st0{fill:#1D9BF0;}
</style>
<path id="Logo_1_" class="st0" d="M28.72,6.47c0.02,0.28,0.02,0.56,0.02,0.85C28.74,16,22.14,26,10.06,26V26C6.5,26,3,24.98,0,23.05
	c0.52,0.06,1.04,0.09,1.56,0.09c2.96,0,5.83-0.99,8.15-2.82c-2.81-0.05-5.27-1.88-6.13-4.56c0.98,0.19,2,0.15,2.96-0.11
	c-3.06-0.62-5.27-3.31-5.27-6.44c0-0.03,0-0.06,0-0.08c0.91,0.51,1.94,0.79,2.98,0.82C1.37,8.04,0.48,4.2,2.23,1.2
	c3.33,4.1,8.25,6.59,13.53,6.86c-0.53-2.28,0.19-4.67,1.9-6.27c2.64-2.49,6.8-2.36,9.29,0.29c1.47-0.29,2.88-0.83,4.17-1.59
	C30.63,2,29.6,3.29,28.23,4.11c1.3-0.15,2.57-0.5,3.77-1.03C31.12,4.39,30.01,5.54,28.72,6.47z"/>
</svg>
