<?xml version="1.0" encoding="utf-8"?>
<!-- Generator: Adobe Illustrator 25.4.1, SVG Export Plug-In . SVG Version: 6.00 Build 0)  -->
<svg version="1.1"
	 id="Layer_1" xmlns:cc="http://creativecommons.org/ns#" xmlns:dc="http://purl.org/dc/elements/1.1/" xmlns:rdf="http://www.w3.org/1999/02/22-rdf-syntax-ns#"
	 xmlns="http://www.w3.org/2000/svg" xmlns:xlink="http://www.w3.org/1999/xlink" x="0px" y="0px" viewBox="0 0 31.85 32"
	 style="enable-background:new 0 0 31.85 32;" xml:space="preserve">
<style type="text/css">
	.st0{fill:#FFFFFF;}
	.st1{fill:url(#SVGID_1_);}
	.st2{fill:url(#SVGID_00000178180114381428510970000001770036260992860818_);}
	.st3{fill-rule:evenodd;clip-rule:evenodd;fill:#FFFFFF;}
</style>
<g transform="translate(81.25 -198.87)">
	<g transform="matrix(.61632 0 0 .61632 -46.994 94.459)">
		<path class="st0" d="M-41.31,213.09l0.78,0.46c3.28,1.95,7.05,2.98,10.89,2.98h0.01c11.79,0,21.38-9.59,21.39-21.38
			c0-5.71-2.22-11.09-6.26-15.13c-4.04-4.04-9.41-6.27-15.12-6.27c-11.8,0-21.39,9.59-21.4,21.38c0,4.04,1.13,7.97,3.27,11.38
			l0.51,0.81l-2.16,7.89L-41.31,213.09z M-55.58,221.33l3.65-13.33c-2.25-3.9-3.44-8.33-3.43-12.86
			c0.01-14.18,11.55-25.72,25.73-25.72c6.88,0,13.34,2.68,18.2,7.54c4.86,4.86,7.53,11.33,7.53,18.2
			c-0.01,14.18-11.55,25.73-25.73,25.73c0,0,0,0,0,0h-0.01c-4.31,0-8.54-1.08-12.3-3.13L-55.58,221.33z"/>
		
			<linearGradient id="SVGID_1_" gradientUnits="userSpaceOnUse" x1="-968.7902" y1="1005.9485" x2="-968.0484" y2="1005.9485" gradientTransform="matrix(0 -41.6418 -41.6418 0 41859.7227 -40121.6914)">
			<stop  offset="0" style="stop-color:#20B038"/>
			<stop  offset="1" style="stop-color:#60D66A"/>
		</linearGradient>
		<path class="st1" d="M-54.48,195.15c0,4.38,1.14,8.65,3.32,12.42l-3.52,12.87l13.17-3.45c3.63,1.98,7.71,3.02,11.87,3.02h0.01
			c13.69,0,24.84-11.14,24.84-24.83c0-6.64-2.58-12.88-7.27-17.57c-4.69-4.69-10.93-7.28-17.57-7.28
			C-43.33,170.31-54.47,181.45-54.48,195.15 M-29.64,220L-29.64,220L-29.64,220C-29.64,220-29.64,220-29.64,220"/>
		
			<linearGradient id="SVGID_00000163763933525841859300000011560307385731379362_" gradientUnits="userSpaceOnUse" x1="-968.1373" y1="1006.6753" x2="-967.3956" y2="1006.6753" gradientTransform="matrix(0 -43.1345 -43.1345 0 43392.6562 -41538.75)">
			<stop  offset="0" style="stop-color:#F9F9F9"/>
			<stop  offset="1" style="stop-color:#FFFFFF"/>
		</linearGradient>
		<path style="fill:url(#SVGID_00000163763933525841859300000011560307385731379362_);" d="M-55.37,195.14
			c0,4.53,1.18,8.96,3.43,12.86l-3.65,13.33l13.64-3.58c3.76,2.05,7.99,3.13,12.3,3.13h0.01c14.18,0,25.73-11.54,25.73-25.73
			c0-6.87-2.67-13.34-7.53-18.2c-4.86-4.86-11.32-7.54-18.2-7.54C-43.82,169.42-55.36,180.96-55.37,195.14 M-47.24,207.33
			l-0.51-0.81c-2.14-3.4-3.27-7.34-3.27-11.38c0-11.79,9.6-21.38,21.4-21.38c5.71,0,11.08,2.23,15.12,6.27
			c4.04,4.04,6.26,9.41,6.26,15.13c-0.01,11.79-9.6,21.38-21.39,21.38h-0.01c-3.84,0-7.6-1.03-10.89-2.98l-0.78-0.46l-8.1,2.12
			L-47.24,207.33z M-29.63,220.89L-29.63,220.89L-29.63,220.89C-29.63,220.89-29.63,220.89-29.63,220.89"/>
		<path class="st3" d="M-36.06,184.38c-0.48-1.07-0.99-1.09-1.45-1.11c-0.37-0.02-0.8-0.01-1.23-0.01c-0.43,0-1.13,0.16-1.71,0.8
			c-0.59,0.64-2.25,2.2-2.25,5.36c0,3.16,2.3,6.22,2.63,6.65c0.32,0.43,4.45,7.13,10.98,9.71c5.43,2.14,6.54,1.72,7.72,1.61
			c1.18-0.11,3.8-1.55,4.34-3.06c0.54-1.5,0.54-2.79,0.38-3.06c-0.16-0.27-0.59-0.43-1.23-0.75c-0.64-0.32-3.8-1.88-4.39-2.09
			c-0.59-0.21-1.02-0.32-1.45,0.32c-0.43,0.64-1.66,2.09-2.04,2.52c-0.37,0.43-0.75,0.48-1.39,0.16c-0.64-0.32-2.71-1-5.17-3.19
			c-1.91-1.7-3.2-3.81-3.58-4.45c-0.37-0.64-0.04-0.99,0.28-1.31c0.29-0.29,0.64-0.75,0.96-1.13c0.32-0.38,0.43-0.64,0.64-1.07
			c0.21-0.43,0.11-0.8-0.05-1.13C-34.24,188.84-35.49,185.66-36.06,184.38"/>
	</g>
</g>
</svg>
