<?xml version="1.0" encoding="UTF-8"?>
<svg xmlns="http://www.w3.org/2000/svg" xmlns:xlink="http://www.w3.org/1999/xlink" width="365pt" height="131.68pt" viewBox="0 0 365 131.68" version="1.1">
<defs>
<clipPath id="clip1">
  <path d="M 0 94 L 365 94 L 365 131.679688 L 0 131.679688 Z M 0 94 "/>
</clipPath>
</defs>
<g id="surface1">
<path style=" stroke:none;fill-rule:nonzero;fill:rgb(14.099121%,67.098999%,88.598633%);fill-opacity:1;" d="M 316.996094 0.00390625 L 311.425781 0.00390625 C 310.226563 0.550781 306.367188 -0.175781 298.652344 3.644531 C 287.117188 9.359375 279.726563 21.949219 280.128906 35.160156 C 280.636719 53.175781 295.558594 67.988281 313.867188 67.988281 C 332.316406 67.988281 347.421875 53.648438 348.078125 35.5625 C 348.441406 25.226563 344.4375 16.636719 339.234375 11.140625 C 338.503906 10.378906 337.921875 9.867188 337.195313 9.140625 C 328.898438 0.769531 318.234375 0.550781 316.996094 0.00390625 Z M 299.382813 8.921875 C 299.78125 9.359375 300.289063 9.503906 301.019531 9.613281 C 306.84375 4.917969 302.945313 6.554688 307.753906 8.195313 C 307.386719 9.394531 306.078125 11.070313 305.785156 12.125 L 306.914063 12.890625 L 309.0625 8.992188 L 313.101563 9.722656 C 313.464844 10.304688 313.320313 11.542969 313.320313 12.304688 C 313.320313 13.253906 313.355469 14.234375 313.28125 15.183594 L 309.171875 15 L 310.117188 16.417969 L 313.320313 16.710938 L 313.355469 26.828125 L 314.777344 26.863281 L 314.921875 24.496094 C 316.339844 24.390625 317.796875 24.28125 319.144531 24.136719 C 320.199219 24.023438 321.253906 24.316406 322.382813 22.460938 L 314.921875 23.078125 L 314.886719 16.636719 C 316.269531 16.527344 317.578125 16.527344 318.777344 16.238281 C 319.6875 16.054688 321.726563 15.691406 322.527344 15.765625 L 324.347656 21.332031 L 325.695313 20.824219 L 323.875 15.109375 C 326.132813 14.527344 327.949219 13.214844 329.808594 12.707031 C 330.679688 13.253906 333.480469 17.585938 333.738281 18.894531 C 332.972656 19.148438 331.917969 19.511719 331.261719 19.875 C 332.898438 20.132813 332.609375 20.53125 334.429688 20.167969 C 335.046875 20.894531 334.71875 21.039063 336.722656 21.660156 L 335.8125 19.441406 L 341.488281 16.199219 C 345.894531 23.914063 348.113281 31.742188 345.929688 41.09375 C 345.457031 43.132813 344.835938 45.097656 344.035156 46.882813 C 342.582031 50.121094 340.46875 53.722656 337.996094 56.199219 C 337.230469 56.960938 334.902344 59.363281 333.847656 59.910156 C 332.464844 59.328125 331.300781 58.199219 330.535156 57.109375 C 329.769531 56.015625 329.441406 54.996094 329.441406 53.613281 C 329.441406 53.433594 329.441406 53.03125 329.480469 52.847656 L 329.550781 52.558594 C 330.0625 51.285156 332.9375 53.140625 337.886719 49.972656 C 339.886719 48.699219 341.742188 47.097656 343.054688 44.550781 C 349.132813 32.796875 338.214844 19.550781 327.222656 22.207031 C 321.980469 23.480469 321.179688 27.335938 317.90625 28.648438 C 315.46875 29.59375 312.011719 28.136719 313.210938 31.195313 C 313.867188 32.941406 313.101563 32.6875 312.738281 32.832031 C 311.535156 33.34375 312.375 33.632813 312.046875 34.6875 C 311.789063 35.597656 311.136719 35.125 310.519531 35.851563 C 310.335938 36.617188 310.664063 36.691406 310.445313 37.34375 C 310.261719 38.035156 308.078125 39.527344 309.679688 41.640625 C 310.773438 43.097656 312.628906 43.859375 314.046875 45.535156 C 315.832031 47.644531 314.8125 49.5 315.648438 52.15625 C 317.433594 57.652344 314.15625 55.796875 306.40625 58.601563 C 303.09375 59.800781 300.035156 61.328125 296.25 60.820313 C 295.085938 60.675781 294.394531 59.945313 293.558594 59.292969 C 291.882813 57.980469 290.902344 57.035156 292.976563 53.867188 C 297.195313 56.378906 301.820313 54.050781 304.476563 53.832031 C 305.75 53.722656 307.898438 55.140625 309.972656 53.542969 C 310.734375 52.996094 312.484375 49.609375 311.027344 48.554688 C 310.191406 48.117188 310.042969 48.519531 309.0625 48.664063 L 309.023438 48.519531 C 308.988281 48.589844 309.023438 48.082031 308.769531 47.753906 L 308.660156 47.644531 C 308.042969 47.0625 306.40625 47.9375 305.824219 48.445313 C 304.292969 49.792969 305.386719 48.917969 301.5625 48.773438 C 296.578125 48.628906 297.632813 46.808594 297.050781 42.441406 C 296.832031 40.765625 296.613281 39.382813 296.324219 37.746094 C 296.03125 36.289063 295.195313 34.289063 296.980469 33.996094 C 298.726563 33.707031 302 35.5625 303.710938 33.851563 C 304.003906 33.597656 304.113281 33.304688 304.328125 33.125 C 305.460938 32.25 304.511719 33.816406 305.714844 31.851563 C 306.222656 31.011719 305.824219 32.140625 306.1875 30.902344 C 306.40625 30.140625 305.933594 30.683594 306.515625 30.101563 C 306.695313 29.921875 307.167969 29.738281 307.351563 29.664063 C 307.425781 27.882813 306.660156 27.445313 307.679688 25.882813 C 308.441406 24.789063 308.808594 24.535156 309.351563 22.933594 C 310.992188 17.910156 306.367188 13.761719 302.65625 12.015625 C 300.507813 11.03125 297.707031 10.269531 295.011719 11.105469 C 292.574219 11.867188 290.863281 13.324219 289.734375 14.890625 C 288.316406 16.820313 287.769531 19.402344 288.136719 22.460938 C 288.5 25.515625 290.0625 27.410156 287.1875 29.230469 C 286.679688 29.558594 286.207031 29.738281 285.695313 30.03125 C 284.675781 30.722656 282.273438 32.6875 281.546875 32.941406 C 281.367188 23.226563 287.117188 13.871094 293.992188 8.375 C 295.195313 7.394531 300 4.152344 301.964844 3.863281 C 302.582031 4.480469 303.09375 4.953125 303.53125 5.574219 C 302.800781 6.375 300.21875 8.410156 299.382813 8.921875 Z M 324.820313 5.574219 C 325.074219 5.101563 325.910156 4.191406 326.566406 3.824219 C 328.96875 4.445313 332.027344 7.066406 333.882813 8.046875 C 333.554688 8.519531 330.933594 10.378906 330.207031 10.558594 C 329.40625 9.867188 328.460938 8.703125 327.585938 8.011719 C 326.75 7.320313 325.585938 6.375 324.820313 5.574219 Z M 320.597656 8.230469 L 323.472656 6.59375 C 324.457031 6.992188 328.351563 10.742188 328.789063 11.542969 C 328.058594 12.089844 324.164063 13.726563 323.144531 13.796875 Z M 331.335938 11.90625 C 331.734375 11.359375 334.210938 9.613281 335.011719 9.066406 C 335.992188 9.539063 340.070313 13.945313 340.542969 15.144531 C 339.304688 15.910156 336.539063 17.691406 335.121094 18.058594 C 334.429688 16.855469 332.171875 12.78125 331.335938 11.90625 Z M 314.921875 15.183594 L 314.886719 9.722656 L 319.144531 8.957031 C 319.398438 9.6875 320.054688 10.558594 320.527344 11.394531 C 320.964844 12.269531 321.4375 13.253906 321.691406 14.160156 C 320.636719 14.746094 316.378906 15.289063 314.921875 15.183594 "/>
<path style=" stroke:none;fill-rule:nonzero;fill:rgb(14.099121%,67.098999%,88.598633%);fill-opacity:1;" d="M 219.566406 60.492188 L 209.230469 60.492188 C 208.757813 64.023438 207.628906 67.335938 204.535156 69.117188 C 201.769531 70.753906 196.675781 71.445313 193.074219 70.28125 C 186.410156 68.171875 183.390625 61.183594 184.046875 52.59375 L 220.039063 52.558594 C 220.476563 50.265625 220.003906 43.53125 219.566406 41.3125 C 217.53125 31.160156 211.269531 24.863281 200.714844 23.769531 C 184.957031 22.167969 176.296875 31.523438 174.257813 45.171875 C 173.199219 52.265625 173.964844 60.238281 176.621094 65.988281 C 179.097656 71.484375 183.0625 75.414063 189.6875 77.160156 C 198.714844 79.527344 210.613281 77.308594 216.328125 69.371094 C 217.894531 67.1875 219.347656 63.804688 219.566406 60.492188 Z M 184.082031 45.898438 C 183.863281 40.292969 186.558594 34.179688 191.363281 31.960938 C 193.21875 31.085938 194.710938 30.722656 197.074219 30.722656 C 205.699219 30.757813 210.433594 37.089844 209.851563 45.898438 L 184.082031 45.898438 "/>
<path style=" stroke:none;fill-rule:nonzero;fill:rgb(14.099121%,67.098999%,88.598633%);fill-opacity:1;" d="M 64.199219 32.652344 L 64.164063 25.042969 L 54.847656 25.082031 C 54.480469 26.390625 54.699219 59.21875 54.699219 63.585938 C 54.699219 67.699219 54.480469 72.613281 54.773438 76.613281 L 64.492188 76.613281 C 64.820313 73.046875 64.527344 53.105469 64.527344 47.644531 C 64.5625 43.3125 65.253906 38.765625 67.367188 36.070313 C 69.332031 33.632813 72.570313 31.269531 77.011719 31.085938 C 89.019531 30.539063 89.75 38.582031 89.75 47.464844 L 89.785156 76.578125 L 99.574219 76.613281 L 99.613281 40.148438 C 99.285156 29.265625 91.132813 23.335938 79.523438 23.550781 C 73.40625 23.699219 67.984375 26.753906 64.925781 31.921875 C 64.820313 32.105469 64.746094 32.25 64.636719 32.359375 C 64.308594 32.6875 64.601563 32.542969 64.199219 32.652344 "/>
<path style=" stroke:none;fill-rule:nonzero;fill:rgb(14.099121%,67.098999%,88.598633%);fill-opacity:1;" d="M 0.328125 25.117188 C 0.0351563 26.171875 0.21875 46.296875 0.21875 49.171875 C 0.21875 57.179688 -0.582031 64.421875 3.09375 70.464844 C 6.222656 75.632813 11.320313 78.652344 19.796875 78.035156 C 26.347656 77.523438 30.972656 74.722656 34.464844 69.847656 C 34.902344 69.261719 34.683594 69.445313 35.195313 69.117188 L 35.230469 76.613281 L 44.691406 76.578125 L 44.621094 25.082031 L 35.085938 25.082031 C 34.792969 26.28125 34.976563 37.5625 34.976563 39.785156 C 34.976563 51.832031 37.304688 69.847656 22.273438 70.972656 C 17.214844 71.339844 13.757813 69.335938 12.082031 66.277344 C 10.152344 62.675781 10.117188 58.382813 10.117188 53.613281 C 10.117188 49.828125 10.445313 26.425781 9.828125 24.753906 C 9.136719 25.191406 9.171875 25.082031 7.679688 25.082031 L 0.328125 25.117188 "/>
<path style=" stroke:none;fill-rule:nonzero;fill:rgb(14.099121%,67.098999%,88.598633%);fill-opacity:1;" d="M 159.773438 59.292969 C 159.40625 62.894531 158.425781 66.535156 155.515625 68.679688 C 152.636719 70.792969 148.453125 71.519531 144.449219 70.136719 C 138.082031 67.953125 135.933594 59.691406 135.898438 51.285156 C 135.859375 42.695313 137.535156 34.578125 143.722656 31.742188 C 146.960938 30.25 151.984375 30.320313 154.785156 32.324219 C 157.734375 34.398438 158.753906 37.054688 159.261719 41.496094 L 168.90625 41.496094 C 169.050781 34.761719 164.976563 29.375 161.191406 26.863281 C 150.054688 19.441406 125.742188 22.789063 125.742188 51.503906 C 125.707031 65.695313 131.566406 75.523438 144.050781 77.632813 C 150.890625 78.761719 157.40625 77.234375 161.773438 73.996094 C 165.050781 71.59375 169.5625 65.84375 169.34375 59.292969 L 159.773438 59.292969 "/>
<path style=" stroke:none;fill-rule:nonzero;fill:rgb(14.099121%,67.098999%,88.598633%);fill-opacity:1;" d="M 249.011719 0.00390625 L 244.714844 0.00390625 C 244.207031 0.261719 241.695313 0.585938 240.785156 0.878906 C 228.921875 4.335938 231.324219 15.800781 231.066406 25.042969 L 222.371094 25.082031 L 222.296875 31.8125 L 231.066406 31.921875 L 231.105469 76.433594 L 240.820313 76.46875 L 240.820313 31.886719 L 252.503906 31.886719 L 252.539063 25.117188 L 240.859375 25.082031 C 240.820313 22.53125 240.820313 19.984375 240.820313 17.472656 C 240.820313 13.035156 240.457031 9.394531 247.15625 8.777344 C 249.046875 8.59375 252.941406 9.175781 254.03125 8.957031 L 254.070313 1.023438 L 249.011719 0.00390625 "/>
<path style=" stroke:none;fill-rule:nonzero;fill:rgb(14.099121%,67.098999%,88.598633%);fill-opacity:1;" d="M 108.746094 76.613281 L 118.316406 76.652344 C 118.609375 74.359375 118.390625 43.207031 118.390625 38.035156 C 118.390625 35.851563 118.644531 26.464844 118.246094 25.082031 L 108.820313 25.082031 L 108.746094 76.613281 "/>
<path style=" stroke:none;fill-rule:nonzero;fill:rgb(14.099121%,67.098999%,88.598633%);fill-opacity:1;" d="M 284.386719 74.578125 C 288.242188 76.761719 297.777344 78.472656 302.839844 76.761719 C 306.769531 75.414063 304.621094 73.59375 308.878906 74.722656 C 309.863281 74.976563 311.136719 75.378906 311.898438 75.886719 L 308.988281 77.890625 C 306.949219 79.34375 302.21875 83.203125 301.382813 85.167969 C 302.183594 85.675781 302.402344 86.042969 303.53125 86.441406 C 305.167969 84.476563 306.515625 82.910156 308.40625 81.164063 C 309.0625 80.582031 313.28125 77.050781 314.230469 77.125 C 315.25 77.199219 319.253906 80.617188 320.015625 81.273438 C 322.347656 83.382813 323.800781 85.460938 324.820313 86.40625 C 325.765625 86.152344 326.347656 85.605469 326.96875 85.167969 C 325.949219 82.910156 321.582031 79.417969 319.359375 77.890625 L 316.523438 75.886719 C 317.359375 75.269531 318.632813 74.941406 319.761719 74.6875 C 321.800781 74.140625 321.800781 73.996094 323 75.230469 C 324.421875 76.652344 326.894531 77.308594 329.40625 77.453125 C 332.136719 77.5625 335.046875 77.308594 337.59375 76.761719 C 337.8125 76.722656 343.746094 75.085938 343.890625 74.613281 L 343.964844 74.539063 C 338.394531 72.210938 327.367188 71.738281 320.742188 72.976563 C 319.542969 73.195313 314.191406 74.796875 314.121094 74.796875 C 313.355469 74.757813 308.335938 72.101563 299.273438 72.246094 C 295.703125 72.320313 286.933594 73.265625 284.386719 74.578125 "/>
<path style=" stroke:none;fill-rule:nonzero;fill:rgb(14.099121%,67.098999%,88.598633%);fill-opacity:1;" d="M 107.691406 13.070313 L 119.445313 13.070313 L 119.484375 2.371094 L 107.765625 2.371094 L 107.691406 13.070313 "/>
<path style=" stroke:none;fill-rule:nonzero;fill:rgb(14.099121%,67.098999%,88.598633%);fill-opacity:1;" d="M 338.46875 71.703125 C 342.910156 72.976563 347.058594 71.664063 350.003906 69.589844 C 352.226563 68.0625 355.355469 64.496094 356.519531 61.476563 C 352.589844 62.277344 349.605469 63.878906 346.585938 65.585938 C 344.074219 67.007813 339.414063 69.628906 338.46875 71.703125 "/>
<path style=" stroke:none;fill-rule:nonzero;fill:rgb(14.099121%,67.098999%,88.598633%);fill-opacity:1;" d="M 289.808594 71.664063 C 288.242188 68.609375 275.578125 61.621094 271.867188 61.546875 C 274.269531 66.132813 277.761719 70.644531 283.148438 71.8125 C 284.824219 72.175781 288.351563 72.355469 289.808594 71.664063 "/>
<path style=" stroke:none;fill-rule:nonzero;fill:rgb(14.099121%,67.098999%,88.598633%);fill-opacity:1;" d="M 298.578125 71.15625 C 299.308594 68.644531 287.589844 58.78125 285.769531 58.382813 C 286.644531 65.660156 289.84375 72.355469 298.578125 71.15625 "/>
<path style=" stroke:none;fill-rule:nonzero;fill:rgb(14.099121%,67.098999%,88.598633%);fill-opacity:1;" d="M 329.625 71.046875 C 331.371094 71.410156 333.554688 71.191406 335.15625 70.644531 C 339.886719 69.117188 342.363281 63.511719 342.582031 58.417969 C 340.980469 58.855469 330.132813 67.625 329.625 71.046875 "/>
<path style=" stroke:none;fill-rule:nonzero;fill:rgb(14.099121%,67.098999%,88.598633%);fill-opacity:1;" d="M 348.984375 62.675781 C 355.0625 62.203125 362.78125 52.121094 362.78125 46.371094 C 358.195313 48.699219 350.078125 58.273438 348.984375 62.675781 "/>
<path style=" stroke:none;fill-rule:nonzero;fill:rgb(14.099121%,67.098999%,88.598633%);fill-opacity:1;" d="M 279.328125 62.640625 C 278.5625 58.453125 269.792969 48.664063 265.496094 46.371094 C 265.679688 50.738281 270.300781 57.652344 274.015625 60.238281 C 275.179688 61.039063 277.542969 62.601563 279.328125 62.640625 "/>
<path style=" stroke:none;fill-rule:nonzero;fill:rgb(14.099121%,67.098999%,88.598633%);fill-opacity:1;" d="M 343.453125 65.113281 C 345.855469 64.09375 348.296875 61.257813 349.242188 58.417969 C 350.441406 54.667969 349.714844 50.738281 348.660156 47.425781 C 346.292969 49.171875 341.816406 62.929688 343.453125 65.113281 "/>
<path style=" stroke:none;fill-rule:nonzero;fill:rgb(14.099121%,67.098999%,88.598633%);fill-opacity:1;" d="M 284.96875 65.222656 C 285.914063 62.96875 284.203125 57.726563 283.550781 55.507813 C 283.074219 53.867188 281.949219 50.773438 281.109375 49.28125 C 280.710938 48.628906 280.238281 48.117188 279.910156 47.390625 C 279.4375 47.9375 279.21875 48.882813 279.035156 49.683594 C 278.34375 52.449219 278.308594 55.726563 279.144531 58.34375 C 279.726563 60.164063 280.492188 61.21875 281.4375 62.386719 C 282.96875 64.203125 284.132813 64.460938 284.96875 65.222656 "/>
<path style=" stroke:none;fill-rule:nonzero;fill:rgb(14.099121%,67.098999%,88.598633%);fill-opacity:1;" d="M 356.410156 49.136719 C 356.957031 49.101563 357.429688 48.628906 358.195313 47.972656 C 360.160156 46.335938 361.433594 44.878906 362.453125 42.441406 C 363.472656 40.039063 364.671875 34.253906 363.90625 31.195313 C 362.597656 31.777344 359.832031 37.671875 359.175781 39.164063 C 358.011719 41.820313 356.375 45.863281 356.410156 49.136719 "/>
<path style=" stroke:none;fill-rule:nonzero;fill:rgb(14.099121%,67.098999%,88.598633%);fill-opacity:1;" d="M 264.296875 33.050781 C 264.296875 38.328125 265.277344 42.949219 268.628906 46.589844 C 269.171875 47.207031 271.140625 48.917969 272.011719 49.210938 C 271.976563 44.988281 268.738281 37.492188 266.554688 33.886719 C 266.078125 33.160156 265.714844 32.652344 265.097656 31.851563 C 264.84375 31.484375 264.660156 30.902344 264.40625 31.414063 C 264.222656 31.777344 264.296875 32.613281 264.296875 33.050781 "/>
<path style=" stroke:none;fill-rule:nonzero;fill:rgb(14.099121%,67.098999%,88.598633%);fill-opacity:1;" d="M 273.503906 47.464844 C 273.503906 50.082031 274.632813 53.066406 276.015625 54.488281 C 277.980469 52.742188 278.964844 39.929688 277.363281 37.089844 L 277.253906 36.980469 L 277.179688 36.871094 C 276.050781 38 275.324219 39.746094 274.632813 41.421875 C 273.757813 43.421875 273.503906 44.988281 273.503906 47.464844 "/>
<path style=" stroke:none;fill-rule:nonzero;fill:rgb(14.099121%,67.098999%,88.598633%);fill-opacity:1;" d="M 352.296875 54.449219 C 354.265625 52.523438 355.210938 48.191406 354.808594 45.132813 C 354.445313 42.730469 352.515625 37.5625 350.988281 36.726563 C 349.824219 40.183594 350.113281 52.050781 352.296875 54.449219 "/>
<path style=" stroke:none;fill-rule:nonzero;fill:rgb(14.099121%,67.098999%,88.598633%);fill-opacity:1;" d="M 358.8125 35.925781 C 364.199219 31.121094 361.871094 19.367188 360.339844 17.472656 C 360.269531 17.621094 360.269531 17.585938 360.121094 17.839844 C 358.484375 21.257813 357.140625 33.234375 358.8125 35.925781 "/>
<path style=" stroke:none;fill-rule:nonzero;fill:rgb(14.099121%,67.098999%,88.598633%);fill-opacity:1;" d="M 269.5 35.925781 L 269.902344 34.980469 C 270.230469 33.742188 270.230469 32.613281 270.191406 31.304688 C 270.191406 27.664063 269.792969 20.167969 267.972656 17.472656 C 267.570313 17.984375 267.390625 18.894531 267.207031 19.621094 C 265.679688 24.863281 265.496094 32.070313 269.5 35.925781 "/>
<path style=" stroke:none;fill-rule:nonzero;fill:rgb(14.099121%,67.098999%,88.598633%);fill-opacity:1;" d="M 356.375 42.804688 C 358.050781 40.511719 357.464844 36 356.339844 33.414063 C 355.355469 31.230469 352.769531 27.410156 351.171875 26.71875 C 350.988281 32.761719 353.679688 38.910156 356.375 42.804688 "/>
<path style=" stroke:none;fill-rule:nonzero;fill:rgb(14.099121%,67.098999%,88.598633%);fill-opacity:1;" d="M 272.011719 42.695313 C 272.15625 42.550781 272.121094 42.621094 272.304688 42.367188 C 275.105469 38.730469 277.289063 31.050781 277.21875 26.789063 C 276.269531 27.082031 274.960938 28.757813 274.339844 29.628906 C 273.503906 30.757813 272.8125 31.8125 272.15625 33.195313 C 270.957031 35.746094 270.265625 40.113281 272.011719 42.695313 "/>
<path style=" stroke:none;fill-rule:nonzero;fill:rgb(14.099121%,67.098999%,88.598633%);fill-opacity:1;" d="M 271.867188 29.738281 C 273.757813 28.246094 275.433594 26.246094 276.925781 23.769531 C 277.980469 22.058594 280.128906 18.492188 280.382813 16.199219 C 275.398438 18.347656 270.992188 23.441406 271.867188 29.738281 "/>
<path style=" stroke:none;fill-rule:nonzero;fill:rgb(14.099121%,67.098999%,88.598633%);fill-opacity:1;" d="M 356.445313 29.738281 C 357.066406 26.171875 355.902344 23.078125 354.265625 20.894531 C 353.0625 19.328125 349.75 16.417969 348.113281 16.019531 C 348.949219 18.601563 350.152344 21.476563 351.496094 23.660156 C 353.355469 26.753906 354.007813 27.410156 356.445313 29.738281 "/>
<path style=" stroke:none;fill-rule:nonzero;fill:rgb(14.099121%,67.098999%,88.598633%);fill-opacity:1;" d="M 357.285156 22.277344 C 358.085938 21.222656 357.867188 19.183594 357.574219 17.949219 C 356.847656 14.710938 353.027344 9.757813 350.914063 8.777344 C 350.914063 13.90625 354.589844 20.496094 357.285156 22.277344 "/>
<path style=" stroke:none;fill-rule:nonzero;fill:rgb(14.099121%,67.098999%,88.598633%);fill-opacity:1;" d="M 271.03125 22.242188 C 273.796875 21.332031 277.507813 12.160156 277.472656 8.558594 C 277.035156 9.25 274.597656 10.960938 272.558594 14.015625 C 271.355469 15.765625 269.648438 19.695313 271.03125 22.242188 "/>
<g clip-path="url(#clip1)" clip-rule="nonzero">
<path style=" stroke:none;fill-rule:nonzero;fill:rgb(14.099121%,67.098999%,88.598633%);fill-opacity:1;" d="M 343.816406 131.097656 L 343.816406 105.039063 L 347.785156 105.039063 L 347.785156 108.714844 C 349.714844 105.875 352.480469 104.457031 356.082031 104.457031 C 357.648438 104.457031 359.105469 104.746094 360.414063 105.332031 C 361.722656 105.875 362.707031 106.640625 363.363281 107.550781 C 364.015625 108.460938 364.488281 109.550781 364.746094 110.789063 C 364.890625 111.625 365 113.046875 365 115.082031 L 365 131.097656 L 360.558594 131.097656 L 360.558594 115.265625 C 360.558594 113.445313 360.378906 112.101563 360.050781 111.226563 C 359.722656 110.351563 359.105469 109.625 358.230469 109.078125 C 357.355469 108.570313 356.339844 108.277344 355.136719 108.277344 C 353.28125 108.277344 351.644531 108.898438 350.296875 110.097656 C 348.914063 111.261719 348.257813 113.554688 348.257813 116.867188 L 348.257813 131.097656 Z M 319.179688 115.59375 L 333.699219 115.59375 C 333.519531 113.375 332.972656 111.734375 332.027344 110.644531 C 330.644531 108.933594 328.824219 108.097656 326.566406 108.097656 C 324.566406 108.097656 322.855469 108.75 321.472656 110.136719 C 320.089844 111.480469 319.324219 113.300781 319.179688 115.59375 Z M 333.664063 122.652344 L 338.25 123.273438 C 337.523438 125.929688 336.175781 128.003906 334.246094 129.460938 C 332.316406 130.914063 329.808594 131.679688 326.785156 131.679688 C 323 131.679688 319.980469 130.480469 317.761719 128.148438 C 315.503906 125.820313 314.410156 122.507813 314.410156 118.285156 C 314.410156 113.917969 315.539063 110.5 317.796875 108.097656 C 320.054688 105.695313 322.964844 104.457031 326.566406 104.457031 C 330.023438 104.457031 332.863281 105.65625 335.085938 108.023438 C 337.265625 110.390625 338.394531 113.738281 338.394531 118.03125 C 338.394531 118.285156 338.359375 118.6875 338.359375 119.195313 L 318.925781 119.195313 C 319.105469 122.070313 319.90625 124.257813 321.363281 125.785156 C 322.820313 127.277344 324.640625 128.039063 326.785156 128.039063 C 328.425781 128.039063 329.808594 127.605469 330.933594 126.765625 C 332.097656 125.894531 332.972656 124.546875 333.664063 122.652344 Z M 299.089844 131.097656 L 299.089844 105.039063 L 303.058594 105.039063 L 303.058594 109.007813 C 304.039063 107.148438 304.984375 105.949219 305.859375 105.367188 C 306.730469 104.746094 307.679688 104.457031 308.699219 104.457031 C 310.191406 104.457031 311.71875 104.929688 313.246094 105.875 L 311.683594 109.953125 C 310.589844 109.332031 309.535156 109.042969 308.441406 109.042969 C 307.496094 109.042969 306.621094 109.332031 305.859375 109.914063 C 305.09375 110.5 304.550781 111.300781 304.222656 112.316406 C 303.746094 113.882813 303.492188 115.628906 303.492188 117.484375 L 303.492188 131.097656 Z M 274.015625 118.105469 C 274.015625 121.453125 274.742188 123.929688 276.160156 125.566406 C 277.542969 127.238281 279.21875 128.039063 281.148438 128.039063 C 283.074219 128.039063 284.714844 127.277344 286.058594 125.675781 C 287.441406 124.109375 288.097656 121.707031 288.097656 118.46875 C 288.097656 114.902344 287.40625 112.316406 286.023438 110.644531 C 284.675781 108.96875 282.96875 108.132813 280.929688 108.132813 C 278.964844 108.132813 277.324219 108.933594 276.015625 110.535156 C 274.703125 112.136719 274.015625 114.648438 274.015625 118.105469 Z M 287.988281 131.097656 L 287.988281 127.820313 C 286.351563 130.371094 283.914063 131.679688 280.710938 131.679688 C 278.636719 131.679688 276.742188 131.097656 274.996094 129.933594 C 273.25 128.804688 271.902344 127.203125 270.921875 125.164063 C 269.972656 123.125 269.5 120.761719 269.5 118.105469 C 269.5 115.484375 269.9375 113.15625 270.8125 111.007813 C 271.683594 108.898438 272.957031 107.296875 274.703125 106.167969 C 276.414063 105.039063 278.382813 104.457031 280.527344 104.457031 C 282.09375 104.457031 283.476563 104.820313 284.714844 105.476563 C 285.949219 106.132813 286.933594 107.003906 287.699219 108.058594 L 287.699219 95.105469 L 292.136719 95.105469 L 292.136719 131.097656 Z M 259.894531 131.097656 L 259.894531 95.105469 L 264.332031 95.105469 L 264.332031 131.097656 Z M 248.828125 131.097656 L 248.828125 105.039063 L 253.234375 105.039063 L 253.234375 131.097656 Z M 248.828125 100.164063 L 248.828125 95.105469 L 253.234375 95.105469 L 253.234375 100.164063 Z M 220.878906 131.097656 L 220.878906 95.105469 L 225.28125 95.105469 L 225.28125 108.058594 C 227.355469 105.65625 229.941406 104.457031 233.070313 104.457031 C 235 104.457031 236.636719 104.855469 238.09375 105.621094 C 239.476563 106.386719 240.496094 107.40625 241.113281 108.75 C 241.730469 110.097656 242.023438 112.0625 242.023438 114.609375 L 242.023438 131.097656 L 237.617188 131.097656 L 237.617188 114.609375 C 237.617188 112.425781 237.109375 110.789063 236.164063 109.808594 C 235.21875 108.789063 233.871094 108.277344 232.160156 108.277344 C 230.851563 108.277344 229.613281 108.640625 228.484375 109.296875 C 227.320313 109.988281 226.519531 110.898438 226.011719 112.0625 C 225.535156 113.226563 225.28125 114.828125 225.28125 116.867188 L 225.28125 131.097656 Z M 212.761719 121.5625 L 217.09375 122.179688 C 216.621094 125.128906 215.417969 127.457031 213.453125 129.132813 C 211.488281 130.84375 209.085938 131.679688 206.246094 131.679688 C 202.71875 131.679688 199.84375 130.515625 197.65625 128.1875 C 195.511719 125.855469 194.417969 122.507813 194.417969 118.179688 C 194.417969 115.339844 194.890625 112.902344 195.839844 110.789063 C 196.746094 108.679688 198.167969 107.113281 200.058594 106.058594 C 201.988281 105.003906 204.0625 104.457031 206.285156 104.457031 C 209.121094 104.457031 211.453125 105.183594 213.234375 106.605469 C 215.019531 108.058594 216.183594 110.097656 216.691406 112.71875 L 212.433594 113.375 C 211.996094 111.625 211.269531 110.316406 210.25 109.40625 C 209.195313 108.53125 207.957031 108.097656 206.464844 108.097656 C 204.246094 108.097656 202.425781 108.898438 201.042969 110.460938 C 199.625 112.0625 198.933594 114.574219 198.933594 118.03125 C 198.933594 121.5625 199.625 124.074219 200.96875 125.675781 C 202.316406 127.238281 204.0625 128.039063 206.210938 128.039063 C 207.957031 128.039063 209.414063 127.53125 210.542969 126.4375 C 211.707031 125.382813 212.472656 123.78125 212.761719 121.5625 Z M 164.976563 131.097656 L 164.976563 105.039063 L 168.941406 105.039063 L 168.941406 109.007813 C 169.960938 107.148438 170.90625 105.949219 171.746094 105.367188 C 172.617188 104.746094 173.566406 104.457031 174.585938 104.457031 C 176.074219 104.457031 177.605469 104.929688 179.132813 105.875 L 177.570313 109.953125 C 176.511719 109.332031 175.421875 109.042969 174.367188 109.042969 C 173.382813 109.042969 172.511719 109.332031 171.78125 109.914063 C 171.019531 110.5 170.472656 111.300781 170.144531 112.316406 C 169.636719 113.882813 169.378906 115.628906 169.378906 117.484375 L 169.378906 131.097656 Z M 139.9375 118.070313 C 139.9375 121.417969 140.664063 123.890625 142.121094 125.566406 C 143.574219 127.203125 145.394531 128.039063 147.652344 128.039063 C 149.835938 128.039063 151.65625 127.203125 153.109375 125.566406 C 154.566406 123.890625 155.296875 121.34375 155.296875 117.921875 C 155.296875 114.71875 154.566406 112.28125 153.109375 110.644531 C 151.65625 108.96875 149.800781 108.132813 147.652344 108.132813 C 145.394531 108.132813 143.574219 108.96875 142.121094 110.609375 C 140.664063 112.246094 139.9375 114.757813 139.9375 118.070313 Z M 135.386719 118.070313 C 135.386719 113.265625 136.734375 109.699219 139.425781 107.367188 C 141.683594 105.441406 144.414063 104.457031 147.652344 104.457031 C 151.21875 104.457031 154.132813 105.65625 156.421875 107.988281 C 158.679688 110.316406 159.84375 113.554688 159.84375 117.703125 C 159.84375 121.054688 159.335938 123.671875 158.316406 125.601563 C 157.332031 127.53125 155.839844 129.023438 153.910156 130.078125 C 152.019531 131.132813 149.910156 131.679688 147.652344 131.679688 C 143.976563 131.679688 141.027344 130.515625 138.773438 128.148438 C 136.515625 125.820313 135.386719 122.472656 135.386719 118.070313 Z M 124.140625 131.097656 L 124.140625 108.425781 L 120.210938 108.425781 L 120.210938 105.039063 L 124.140625 105.039063 L 124.140625 102.273438 C 124.140625 100.488281 124.285156 99.214844 124.613281 98.378906 C 125.050781 97.214844 125.777344 96.304688 126.835938 95.578125 C 127.925781 94.886719 129.417969 94.519531 131.347656 94.519531 C 132.585938 94.519531 133.96875 94.667969 135.460938 94.957031 L 134.804688 98.816406 C 133.894531 98.671875 133.023438 98.597656 132.183594 98.597656 C 130.875 98.597656 129.929688 98.886719 129.347656 99.433594 C 128.800781 100.015625 128.507813 101.070313 128.507813 102.636719 L 128.507813 105.039063 L 133.605469 105.039063 L 133.605469 108.425781 L 128.582031 108.425781 L 128.582031 131.097656 Z M 84.472656 115.59375 L 99.03125 115.59375 C 98.8125 113.375 98.265625 111.734375 97.355469 110.644531 C 95.9375 108.933594 94.117188 108.097656 91.894531 108.097656 C 89.859375 108.097656 88.148438 108.75 86.765625 110.136719 C 85.382813 111.480469 84.617188 113.300781 84.472656 115.59375 Z M 98.957031 122.652344 L 103.542969 123.273438 C 102.8125 125.929688 101.503906 128.003906 99.539063 129.460938 C 97.609375 130.914063 95.136719 131.679688 92.113281 131.679688 C 88.292969 131.679688 85.273438 130.480469 83.050781 128.148438 C 80.832031 125.820313 79.703125 122.507813 79.703125 118.285156 C 79.703125 113.917969 80.832031 110.5 83.089844 108.097656 C 85.34375 105.695313 88.257813 104.457031 91.859375 104.457031 C 95.316406 104.457031 98.191406 105.65625 100.375 108.023438 C 102.597656 110.390625 103.6875 113.738281 103.6875 118.03125 C 103.6875 118.285156 103.6875 118.6875 103.652344 119.195313 L 84.21875 119.195313 C 84.398438 122.070313 85.199219 124.257813 86.65625 125.785156 C 88.109375 127.277344 89.929688 128.039063 92.113281 128.039063 C 93.714844 128.039063 95.097656 127.605469 96.226563 126.765625 C 97.390625 125.894531 98.300781 124.546875 98.957031 122.652344 Z M 76.792969 127.167969 L 77.410156 131.0625 C 76.171875 131.316406 75.046875 131.460938 74.0625 131.460938 C 72.460938 131.460938 71.222656 131.207031 70.351563 130.699219 C 69.476563 130.1875 68.859375 129.53125 68.496094 128.695313 C 68.128906 127.859375 67.949219 126.113281 67.949219 123.453125 L 67.949219 108.425781 L 64.671875 108.425781 L 64.671875 105.039063 L 67.949219 105.039063 L 67.949219 98.5625 L 72.390625 95.902344 L 72.390625 105.039063 L 76.792969 105.039063 L 76.792969 108.425781 L 72.390625 108.425781 L 72.390625 123.710938 C 72.390625 124.984375 72.460938 125.785156 72.605469 126.148438 C 72.753906 126.511719 73.007813 126.804688 73.371094 127.023438 C 73.734375 127.238281 74.207031 127.347656 74.863281 127.347656 C 75.371094 127.347656 75.992188 127.277344 76.792969 127.167969 Z M 56.046875 131.097656 L 56.046875 105.039063 L 60.453125 105.039063 L 60.453125 131.097656 Z M 56.046875 100.164063 L 56.046875 95.105469 L 60.453125 95.105469 L 60.453125 100.164063 Z M 28.058594 131.097656 L 28.058594 105.039063 L 32.027344 105.039063 L 32.027344 108.714844 C 33.957031 105.875 36.722656 104.457031 40.324219 104.457031 C 41.890625 104.457031 43.34375 104.746094 44.65625 105.332031 C 45.964844 105.875 46.949219 106.640625 47.605469 107.550781 C 48.257813 108.460938 48.730469 109.550781 48.988281 110.789063 C 49.167969 111.625 49.242188 113.046875 49.242188 115.082031 L 49.242188 131.097656 L 44.800781 131.097656 L 44.800781 115.265625 C 44.800781 113.445313 44.65625 112.101563 44.292969 111.226563 C 43.964844 110.351563 43.34375 109.625 42.472656 109.078125 C 41.597656 108.570313 40.578125 108.277344 39.414063 108.277344 C 37.523438 108.277344 35.921875 108.898438 34.539063 110.097656 C 33.15625 111.261719 32.5 113.554688 32.5 116.867188 L 32.5 131.097656 Z M 17.140625 131.097656 L 17.140625 127.238281 C 15.140625 130.1875 12.375 131.679688 8.917969 131.679688 C 7.351563 131.679688 5.933594 131.390625 4.585938 130.769531 C 3.273438 130.1875 2.292969 129.460938 1.636719 128.550781 C 0.984375 127.675781 0.546875 126.585938 0.289063 125.273438 C 0.109375 124.4375 0 123.054688 0 121.160156 L 0 105.039063 L 4.441406 105.039063 L 4.441406 119.453125 C 4.441406 121.78125 4.511719 123.308594 4.695313 124.109375 C 4.984375 125.273438 5.570313 126.183594 6.476563 126.839844 C 7.351563 127.496094 8.480469 127.859375 9.789063 127.859375 C 11.136719 127.859375 12.375 127.496094 13.503906 126.839844 C 14.667969 126.148438 15.503906 125.238281 15.976563 124.074219 C 16.449219 122.910156 16.707031 121.199219 16.707031 118.976563 L 16.707031 105.039063 L 21.109375 105.039063 L 21.109375 131.097656 L 17.140625 131.097656 "/>
</g>
</g>
</svg>
