<svg xmlns="http://www.w3.org/2000/svg" xmlns:xlink="http://www.w3.org/1999/xlink" width="152" zoomAndPan="magnify" viewBox="0 0 114 54" height="72" preserveAspectRatio="xMidYMid meet" version="1.0"><defs><clipPath id="d5c3a40f96"><path d="M 51.285156 12.839844 L 73.898438 12.839844 L 73.898438 40.085938 L 51.285156 40.085938 Z M 51.285156 12.839844 " clip-rule="nonzero"/></clipPath><clipPath id="7cad27fb50"><path d="M 72.808594 12.839844 L 110.464844 12.839844 L 110.464844 40.085938 L 72.808594 40.085938 Z M 72.808594 12.839844 " clip-rule="nonzero"/></clipPath><clipPath id="e18410be75"><path d="M 4.058594 12.839844 L 30 12.839844 L 30 40 L 4.058594 40 Z M 4.058594 12.839844 " clip-rule="nonzero"/></clipPath><clipPath id="ea3f1b925d"><path d="M 43 35 L 49 35 L 49 40.085938 L 43 40.085938 Z M 43 35 " clip-rule="nonzero"/></clipPath></defs><g clip-path="url(#d5c3a40f96)"><path fill="#202020" d="M 59.492188 14.371094 L 59.492188 25.78125 L 62.789062 25.78125 C 64.949219 25.746094 66.367188 25.746094 67.445312 24.574219 C 68.304688 23.683594 68.601562 22.511719 68.601562 20.09375 C 68.601562 17.746094 68.304688 16.789062 68.042969 16.253906 C 67.039062 14.371094 65.324219 14.371094 61.855469 14.371094 L 59.492188 14.371094 M 62.058594 12.839844 C 64.425781 12.839844 66.433594 12.839844 68.195312 13.339844 C 71.726562 14.292969 73.773438 16.859375 73.773438 19.882812 C 73.773438 23.328125 71.003906 25.320312 68.640625 26.121094 C 66.511719 26.808594 64.265625 26.847656 61.859375 26.847656 L 59.492188 26.847656 L 59.492188 38.960938 L 63.101562 38.960938 L 63.101562 40.085938 L 51.464844 40.085938 L 51.464844 38.960938 L 54.996094 38.960938 L 54.996094 14.371094 L 51.386719 14.371094 L 51.386719 12.839844 " fill-opacity="1" fill-rule="nonzero"/></g><g clip-path="url(#7cad27fb50)"><path fill="#202020" d="M 75.625 14.371094 L 75.625 38.960938 L 72.933594 38.960938 L 72.933594 40.085938 L 82.085938 40.085938 L 82.085938 38.960938 L 79.515625 38.960938 L 79.515625 32.589844 C 79.597656 29.492188 79.675781 27.960938 80.921875 26.425781 C 82.285156 24.78125 84.050781 24.78125 84.449219 24.78125 C 87.179688 24.78125 87.140625 26.925781 87.140625 28.53125 L 87.140625 38.960938 L 84.570312 38.960938 L 84.570312 40.085938 L 110.46875 40.085938 L 110.46875 38.960938 L 107.414062 38.960938 L 107.414062 12.839844 L 107.152344 12.894531 C 106.203125 13.046875 105.066406 13.128906 104.03125 13.15625 C 102.910156 13.183594 101.878906 13.183594 101.289062 13.183594 L 101.289062 14.371094 L 103.527344 14.371094 L 103.527344 38.960938 L 99.191406 38.960938 L 99.191406 24.09375 L 99 24.132812 C 98.035156 24.296875 96.980469 24.347656 95.90625 24.375 C 94.785156 24.40625 93.753906 24.40625 93.164062 24.40625 L 93.164062 25.476562 L 95.417969 25.476562 L 95.417969 38.960938 L 91.070312 38.960938 L 91.070312 28.761719 C 91.070312 27.726562 91.03125 26.160156 90.109375 25.164062 C 89.347656 24.359375 87.859375 23.632812 85.613281 23.632812 C 82.042969 23.632812 80.199219 25.507812 79.515625 26.351562 L 79.515625 12.839844 L 79.425781 12.859375 C 78.433594 13.03125 77.214844 13.117188 76.109375 13.148438 C 74.988281 13.175781 73.960938 13.175781 73.367188 13.175781 L 73.367188 14.371094 " fill-opacity="1" fill-rule="nonzero"/></g><path fill="#202020" d="M 33.742188 25.507812 L 33.742188 38.648438 L 31.03125 38.648438 L 31.03125 39.773438 L 40.121094 39.773438 L 40.121094 38.648438 L 37.53125 38.648438 L 37.53125 34.335938 C 37.566406 31.863281 37.609375 29.8125 38.726562 27.261719 C 39.5625 25.363281 40.320312 25.324219 40.398438 25.324219 C 40.796875 25.324219 40.796875 25.511719 40.878906 26.3125 C 40.996094 27.339844 41.675781 27.984375 42.75 27.984375 C 43.988281 27.984375 44.820312 27.109375 44.820312 26.007812 C 44.820312 24.675781 43.707031 23.765625 42.234375 23.765625 C 40.679688 23.765625 39.441406 24.601562 38.527344 25.855469 C 37.96875 26.652344 37.726562 27.261719 37.53125 27.796875 L 37.53125 24.15625 L 37.5625 24.144531 C 37.550781 24.144531 37.539062 24.148438 37.53125 24.148438 L 37.53125 24.105469 L 36.835938 24.253906 C 36.023438 24.355469 35.117188 24.410156 34.285156 24.433594 C 33.191406 24.460938 32.191406 24.460938 31.613281 24.460938 L 31.613281 25.507812 L 33.742188 25.507812 " fill-opacity="1" fill-rule="nonzero"/><g clip-path="url(#e18410be75)"><path fill="#202020" d="M 12.554688 14.0625 L 12.554688 38.65625 L 14.660156 38.65625 C 17.074219 38.65625 19.996094 38.65625 21.980469 36.910156 C 24.199219 35.015625 24.355469 31.78125 24.355469 26.023438 C 24.355469 24.167969 24.355469 22.199219 24.082031 20.265625 C 23.929688 19.113281 23.65625 17.480469 22.410156 16.144531 C 20.539062 14.136719 18.203125 14.136719 13.648438 14.0625 L 12.554688 14.0625 M 4.425781 38.648438 L 7.972656 38.648438 L 7.972656 14.0625 L 4.664062 14.0625 L 4.664062 12.921875 L 13.632812 12.921875 C 16.464844 12.921875 18.933594 12.925781 21.085938 13.570312 C 25.832031 14.902344 29.898438 19.429688 29.898438 26.273438 C 29.898438 30 28.585938 33.652344 25.871094 36.3125 C 22.363281 39.738281 18.617188 39.738281 15.386719 39.773438 L 4.425781 39.773438 " fill-opacity="1" fill-rule="nonzero"/></g><g clip-path="url(#ea3f1b925d)"><path fill="#202020" d="M 48.011719 37.570312 C 48.011719 38.914062 46.910156 40.003906 45.554688 40.003906 C 44.195312 40.003906 43.09375 38.914062 43.09375 37.570312 C 43.09375 36.230469 44.195312 35.144531 45.554688 35.144531 C 46.910156 35.144531 48.011719 36.230469 48.011719 37.570312 " fill-opacity="1" fill-rule="nonzero"/></g><path fill="#202020" d="M 99.605469 15.582031 C 99.605469 16.921875 98.503906 18.011719 97.148438 18.011719 C 95.789062 18.011719 94.6875 16.921875 94.6875 15.582031 C 94.6875 14.238281 95.789062 13.148438 97.148438 13.148438 C 98.503906 13.148438 99.605469 14.238281 99.605469 15.582031 " fill-opacity="1" fill-rule="nonzero"/></svg>